<?xml version="1.0" encoding="UTF-8" standalone="no"?>
<!-- This is a Stata 16.0 generated SVG file (http://www.stata.com) -->

<svg version="1.1" width="5.50in" height="4.00in" viewBox="0 0 3960 2880" xmlns="http://www.w3.org/2000/svg" xmlns:xlink="http://www.w3.org/1999/xlink">
	<desc>Stata Graph - Graph</desc>
	<rect x="0" y="0" width="3960" height="2880" style="fill:#EAF2F3;stroke:none"/>
	<rect x="0.00" y="0.00" width="3959.88" height="2880.00" style="fill:#EAF2F3"/>
	<rect x="2.88" y="2.88" width="3954.12" height="2874.24" style="fill:none;stroke:#EAF2F3;stroke-width:5.76"/>
	<rect x="390.80" y="100.86" width="3468.22" height="2388.33" style="fill:#FFFFFF"/>
	<rect x="393.68" y="103.74" width="3462.46" height="2382.57" style="fill:none;stroke:#FFFFFF;stroke-width:5.76"/>
	<line x1="390.80" y1="2489.19" x2="3859.02" y2="2489.19" style="stroke:#EAF2F3;stroke-width:8.64"/>
	<line x1="390.80" y1="1907.91" x2="3859.02" y2="1907.91" style="stroke:#EAF2F3;stroke-width:8.64"/>
	<line x1="390.80" y1="1326.64" x2="3859.02" y2="1326.64" style="stroke:#EAF2F3;stroke-width:8.64"/>
	<line x1="390.80" y1="745.37" x2="3859.02" y2="745.37" style="stroke:#EAF2F3;stroke-width:8.64"/>
	<line x1="390.80" y1="164.22" x2="3859.02" y2="164.22" style="stroke:#EAF2F3;stroke-width:8.64"/>
	<rect x="560.84" y="2037.11" width="213.22" height="452.07" style="fill:#CAC27E"/>
	<rect x="565.15" y="2041.43" width="204.58" height="443.43" style="fill:none;stroke:#D7D29E;stroke-width:8.64"/>
	<rect x="774.06" y="2263.21" width="213.35" height="225.97" style="fill:#CAC27E"/>
	<rect x="778.38" y="2267.53" width="204.71" height="217.33" style="fill:none;stroke:#D7D29E;stroke-width:8.64"/>
	<rect x="987.40" y="2263.21" width="213.22" height="225.97" style="fill:#CAC27E"/>
	<rect x="991.72" y="2267.53" width="204.58" height="217.33" style="fill:none;stroke:#D7D29E;stroke-width:8.64"/>
	<rect x="1200.62" y="1472.05" width="213.35" height="1017.13" style="fill:#CAC27E"/>
	<rect x="1204.94" y="1476.37" width="204.71" height="1008.49" style="fill:none;stroke:#D7D29E;stroke-width:8.64"/>
	<rect x="1413.97" y="2319.64" width="213.22" height="169.54" style="fill:#CAC27E"/>
	<rect x="1418.29" y="2323.96" width="204.58" height="160.90" style="fill:none;stroke:#D7D29E;stroke-width:8.64"/>
	<rect x="1627.19" y="1245.95" width="213.35" height="1243.23" style="fill:#CAC27E"/>
	<rect x="1631.51" y="1250.27" width="204.71" height="1234.59" style="fill:none;stroke:#D7D29E;stroke-width:8.64"/>
	<rect x="1840.53" y="1754.58" width="213.34" height="734.60" style="fill:#CAC27E"/>
	<rect x="1844.85" y="1758.90" width="204.71" height="725.96" style="fill:none;stroke:#D7D29E;stroke-width:8.64"/>
	<rect x="2053.88" y="2376.20" width="213.22" height="112.99" style="fill:#CAC27E"/>
	<rect x="2058.20" y="2380.52" width="204.58" height="104.35" style="fill:none;stroke:#D7D29E;stroke-width:8.64"/>
	<rect x="2267.10" y="624.34" width="213.35" height="1864.85" style="fill:#CAC27E"/>
	<rect x="2271.42" y="628.66" width="204.71" height="1856.21" style="fill:none;stroke:#D7D29E;stroke-width:8.64"/>
	<rect x="2480.45" y="2319.64" width="213.22" height="169.54" style="fill:#CAC27E"/>
	<rect x="2484.76" y="2323.96" width="204.58" height="160.90" style="fill:none;stroke:#D7D29E;stroke-width:8.64"/>
	<rect x="2693.67" y="398.24" width="213.34" height="2090.95" style="fill:#CAC27E"/>
	<rect x="2697.99" y="402.56" width="204.71" height="2082.31" style="fill:none;stroke:#D7D29E;stroke-width:8.64"/>
	<rect x="2907.01" y="2037.11" width="213.34" height="452.07" style="fill:#CAC27E"/>
	<rect x="2911.33" y="2041.43" width="204.71" height="443.43" style="fill:none;stroke:#D7D29E;stroke-width:8.64"/>
	<rect x="3120.36" y="1245.95" width="213.22" height="1243.23" style="fill:#CAC27E"/>
	<rect x="3124.68" y="1250.27" width="204.58" height="1234.59" style="fill:none;stroke:#D7D29E;stroke-width:8.64"/>
	<rect x="3333.58" y="1189.40" width="213.35" height="1299.79" style="fill:#CAC27E"/>
	<rect x="3337.90" y="1193.72" width="204.71" height="1291.15" style="fill:none;stroke:#D7D29E;stroke-width:8.64"/>
	<line x1="390.80" y1="2489.19" x2="390.80" y2="100.86" style="stroke:#000000;stroke-width:5.76"/>
	<line x1="390.80" y1="2489.19" x2="350.83" y2="2489.19" style="stroke:#000000;stroke-width:5.76"/>
	<text x="300.72" y="2489.19" style="font-family:'Helvetica';font-size:99.99px;fill:#000000" transform="rotate(-90 300.72,2489.19)" text-anchor="middle">0</text>
	<line x1="390.80" y1="1907.91" x2="350.83" y2="1907.91" style="stroke:#000000;stroke-width:5.76"/>
	<text x="300.72" y="1907.91" style="font-family:'Helvetica';font-size:99.99px;fill:#000000" transform="rotate(-90 300.72,1907.91)" text-anchor="middle">.02</text>
	<line x1="390.80" y1="1326.64" x2="350.83" y2="1326.64" style="stroke:#000000;stroke-width:5.76"/>
	<text x="300.72" y="1326.64" style="font-family:'Helvetica';font-size:99.99px;fill:#000000" transform="rotate(-90 300.72,1326.64)" text-anchor="middle">.04</text>
	<line x1="390.80" y1="745.37" x2="350.83" y2="745.37" style="stroke:#000000;stroke-width:5.76"/>
	<text x="300.72" y="745.37" style="font-family:'Helvetica';font-size:99.99px;fill:#000000" transform="rotate(-90 300.72,745.37)" text-anchor="middle">.06</text>
	<line x1="390.80" y1="164.22" x2="350.83" y2="164.22" style="stroke:#000000;stroke-width:5.76"/>
	<text x="300.72" y="164.22" style="font-family:'Helvetica';font-size:99.99px;fill:#000000" transform="rotate(-90 300.72,164.22)" text-anchor="middle">.08</text>
	<text x="190.71" y="1294.96" style="font-family:'Helvetica';font-size:99.99px;fill:#000000" transform="rotate(-90 190.71,1294.96)" text-anchor="middle">Density</text>
	<line x1="390.80" y1="2489.19" x2="3859.02" y2="2489.19" style="stroke:#000000;stroke-width:5.76"/>
	<line x1="477.80" y1="2489.19" x2="477.80" y2="2529.16" style="stroke:#000000;stroke-width:5.76"/>
	<text x="477.80" y="2619.14" style="font-family:'Helvetica';font-size:99.99px;fill:#000000" text-anchor="middle">30.00</text>
	<line x1="1307.30" y1="2489.19" x2="1307.30" y2="2529.16" style="stroke:#000000;stroke-width:5.76"/>
	<text x="1307.30" y="2619.14" style="font-family:'Helvetica';font-size:99.99px;fill:#000000" text-anchor="middle">40.00</text>
	<line x1="2136.79" y1="2489.19" x2="2136.79" y2="2529.16" style="stroke:#000000;stroke-width:5.76"/>
	<text x="2136.79" y="2619.14" style="font-family:'Helvetica';font-size:99.99px;fill:#000000" text-anchor="middle">50.00</text>
	<line x1="2966.29" y1="2489.19" x2="2966.29" y2="2529.16" style="stroke:#000000;stroke-width:5.76"/>
	<text x="2966.29" y="2619.14" style="font-family:'Helvetica';font-size:99.99px;fill:#000000" text-anchor="middle">60.00</text>
	<line x1="3795.66" y1="2489.19" x2="3795.66" y2="2529.16" style="stroke:#000000;stroke-width:5.76"/>
	<text x="3795.66" y="2619.14" style="font-family:'Helvetica';font-size:99.99px;fill:#000000" text-anchor="middle">70.00</text>
	<text x="2124.91" y="2729.16" style="font-family:'Helvetica';font-size:99.99px;fill:#000000" text-anchor="middle">writing score</text>
</svg>
