<?xml version="1.0" encoding="UTF-8" standalone="no"?>
<!-- This is a Stata 16.0 generated SVG file (http://www.stata.com) -->

<svg version="1.1" width="5.50in" height="4.00in" viewBox="0 0 3960 2880" xmlns="http://www.w3.org/2000/svg" xmlns:xlink="http://www.w3.org/1999/xlink">
	<desc>Stata Graph - Graph</desc>
	<rect x="0" y="0" width="3960" height="2880" style="fill:#EAF2F3;stroke:none"/>
	<rect x="0.00" y="0.00" width="3959.88" height="2880.00" style="fill:#EAF2F3"/>
	<rect x="2.88" y="2.88" width="3954.12" height="2874.24" style="fill:none;stroke:#EAF2F3;stroke-width:5.76"/>
	<rect x="390.80" y="100.86" width="3468.22" height="2518.39" style="fill:#FFFFFF"/>
	<rect x="393.68" y="103.74" width="3462.46" height="2512.63" style="fill:none;stroke:#FFFFFF;stroke-width:5.76"/>
	<line x1="390.80" y1="2518.39" x2="3859.02" y2="2518.39" style="stroke:#EAF2F3;stroke-width:8.64"/>
	<line x1="390.80" y1="1939.22" x2="3859.02" y2="1939.22" style="stroke:#EAF2F3;stroke-width:8.64"/>
	<line x1="390.80" y1="1360.06" x2="3859.02" y2="1360.06" style="stroke:#EAF2F3;stroke-width:8.64"/>
	<line x1="390.80" y1="780.76" x2="3859.02" y2="780.76" style="stroke:#EAF2F3;stroke-width:8.64"/>
	<line x1="390.80" y1="201.60" x2="3859.02" y2="201.60" style="stroke:#EAF2F3;stroke-width:8.64"/>
	<rect x="683.72" y="838.68" width="960.80" height="1042.63" style="fill:#8DA3B7"/>
	<rect x="688.04" y="843.00" width="952.16" height="1033.99" style="fill:none;stroke:#1A476F;stroke-width:8.64"/>
	<line x1="683.72" y1="1244.22" x2="1644.51" y2="1244.22" style="stroke:#1A476F;stroke-width:8.64"/>
	<line x1="1164.12" y1="1881.31" x2="1164.12" y2="2460.47" style="stroke:#1A476F;stroke-width:8.64"/>
	<line x1="1164.12" y1="838.68" x2="1164.12" y2="375.35" style="stroke:#1A476F;stroke-width:8.64"/>
	<line x1="842.24" y1="2460.47" x2="1485.99" y2="2460.47" style="stroke:#1A476F;stroke-width:8.64"/>
	<line x1="842.24" y1="375.35" x2="1485.99" y2="375.35" style="stroke:#1A476F;stroke-width:8.64"/>
	<rect x="2605.31" y="664.93" width="960.80" height="695.13" style="fill:#8DA3B7"/>
	<rect x="2609.63" y="669.25" width="952.16" height="686.49" style="fill:none;stroke:#1A476F;stroke-width:8.64"/>
	<line x1="2605.31" y1="954.51" x2="3566.10" y2="954.51" style="stroke:#1A476F;stroke-width:8.64"/>
	<line x1="3085.71" y1="1360.06" x2="3085.71" y2="2228.81" style="stroke:#1A476F;stroke-width:8.64"/>
	<line x1="3085.71" y1="664.93" x2="3085.71" y2="375.35" style="stroke:#1A476F;stroke-width:8.64"/>
	<line x1="2763.83" y1="2228.81" x2="3407.58" y2="2228.81" style="stroke:#1A476F;stroke-width:8.64"/>
	<line x1="2763.83" y1="375.35" x2="3407.58" y2="375.35" style="stroke:#1A476F;stroke-width:8.64"/>
	<line x1="390.80" y1="2619.25" x2="390.80" y2="100.86" style="stroke:#000000;stroke-width:5.76"/>
	<line x1="390.80" y1="2518.39" x2="350.83" y2="2518.39" style="stroke:#000000;stroke-width:5.76"/>
	<text x="300.72" y="2518.39" style="font-family:'Helvetica';font-size:99.99px;fill:#000000" transform="rotate(-90 300.72,2518.39)" text-anchor="middle">30</text>
	<line x1="390.80" y1="1939.22" x2="350.83" y2="1939.22" style="stroke:#000000;stroke-width:5.76"/>
	<text x="300.72" y="1939.22" style="font-family:'Helvetica';font-size:99.99px;fill:#000000" transform="rotate(-90 300.72,1939.22)" text-anchor="middle">40</text>
	<line x1="390.80" y1="1360.06" x2="350.83" y2="1360.06" style="stroke:#000000;stroke-width:5.76"/>
	<text x="300.72" y="1360.06" style="font-family:'Helvetica';font-size:99.99px;fill:#000000" transform="rotate(-90 300.72,1360.06)" text-anchor="middle">50</text>
	<line x1="390.80" y1="780.76" x2="350.83" y2="780.76" style="stroke:#000000;stroke-width:5.76"/>
	<text x="300.72" y="780.76" style="font-family:'Helvetica';font-size:99.99px;fill:#000000" transform="rotate(-90 300.72,780.76)" text-anchor="middle">60</text>
	<line x1="390.80" y1="201.60" x2="350.83" y2="201.60" style="stroke:#000000;stroke-width:5.76"/>
	<text x="300.72" y="201.60" style="font-family:'Helvetica';font-size:99.99px;fill:#000000" transform="rotate(-90 300.72,201.60)" text-anchor="middle">70</text>
	<text x="190.71" y="1360.06" style="font-family:'Helvetica';font-size:99.99px;fill:#000000" transform="rotate(-90 190.71,1360.06)" text-anchor="middle">writing score</text>
	<line x1="390.80" y1="2619.25" x2="3859.02" y2="2619.25" style="stroke:#000000;stroke-width:5.76"/>
	<text x="1164.12" y="2729.16" style="font-family:'Helvetica';font-size:99.99px;fill:#000000" text-anchor="middle">male</text>
	<text x="3085.71" y="2729.16" style="font-family:'Helvetica';font-size:99.99px;fill:#000000" text-anchor="middle">female</text>
</svg>
