<?xml version="1.0" encoding="UTF-8" standalone="no"?>
<!-- This is a Stata 16.0 generated SVG file (http://www.stata.com) -->

<svg version="1.1" width="5.50in" height="4.00in" viewBox="0 0 3960 2880" xmlns="http://www.w3.org/2000/svg" xmlns:xlink="http://www.w3.org/1999/xlink">
	<desc>Stata Graph - Graph</desc>
	<rect x="0" y="0" width="3960" height="2880" style="fill:#EAF2F3;stroke:none"/>
	<rect x="0.00" y="0.00" width="3959.88" height="2880.00" style="fill:#EAF2F3"/>
	<rect x="2.88" y="2.88" width="3954.12" height="2874.24" style="fill:none;stroke:#EAF2F3;stroke-width:5.76"/>
	<rect x="390.80" y="100.86" width="3468.22" height="2388.33" style="fill:#FFFFFF"/>
	<rect x="393.68" y="103.74" width="3462.46" height="2382.57" style="fill:none;stroke:#FFFFFF;stroke-width:5.76"/>
	<line x1="390.80" y1="2338.82" x2="3859.02" y2="2338.82" style="stroke:#EAF2F3;stroke-width:8.64"/>
	<line x1="390.80" y1="1903.95" x2="3859.02" y2="1903.95" style="stroke:#EAF2F3;stroke-width:8.64"/>
	<line x1="390.80" y1="1468.96" x2="3859.02" y2="1468.96" style="stroke:#EAF2F3;stroke-width:8.64"/>
	<line x1="390.80" y1="1034.09" x2="3859.02" y2="1034.09" style="stroke:#EAF2F3;stroke-width:8.64"/>
	<line x1="390.80" y1="599.09" x2="3859.02" y2="599.09" style="stroke:#EAF2F3;stroke-width:8.64"/>
	<line x1="390.80" y1="164.22" x2="3859.02" y2="164.22" style="stroke:#EAF2F3;stroke-width:8.64"/>
	<circle cx="2291.97" cy="1164.52" r="26.35" style="fill:#1A476F"/>
	<circle cx="2291.97" cy="1164.52" r="22.03" style="fill:none;stroke:#1A476F;stroke-width:8.64"/>
	<circle cx="2876.69" cy="686.09" r="26.35" style="fill:#1A476F"/>
	<circle cx="2876.69" cy="686.09" r="22.03" style="fill:none;stroke:#1A476F;stroke-width:8.64"/>
	<circle cx="704.76" cy="1729.96" r="26.35" style="fill:#1A476F"/>
	<circle cx="704.76" cy="1729.96" r="22.03" style="fill:none;stroke:#1A476F;stroke-width:8.64"/>
	<circle cx="1623.60" cy="903.65" r="26.35" style="fill:#1A476F"/>
	<circle cx="1623.60" cy="903.65" r="22.03" style="fill:none;stroke:#1A476F;stroke-width:8.64"/>
	<circle cx="2291.97" cy="1599.52" r="26.35" style="fill:#1A476F"/>
	<circle cx="2291.97" cy="1599.52" r="22.03" style="fill:none;stroke:#1A476F;stroke-width:8.64"/>
	<circle cx="2291.97" cy="1729.96" r="26.35" style="fill:#1A476F"/>
	<circle cx="2291.97" cy="1729.96" r="22.03" style="fill:none;stroke:#1A476F;stroke-width:8.64"/>
	<circle cx="2876.69" cy="1469.08" r="26.35" style="fill:#1A476F"/>
	<circle cx="2876.69" cy="1469.08" r="22.03" style="fill:none;stroke:#1A476F;stroke-width:8.64"/>
	<circle cx="1790.66" cy="2164.95" r="26.35" style="fill:#1A476F"/>
	<circle cx="1790.66" cy="2164.95" r="22.03" style="fill:none;stroke:#1A476F;stroke-width:8.64"/>
	<circle cx="2709.63" cy="903.65" r="26.35" style="fill:#1A476F"/>
	<circle cx="2709.63" cy="903.65" r="22.03" style="fill:none;stroke:#1A476F;stroke-width:8.64"/>
	<circle cx="2542.57" cy="1164.52" r="26.35" style="fill:#1A476F"/>
	<circle cx="2542.57" cy="1164.52" r="22.03" style="fill:none;stroke:#1A476F;stroke-width:8.64"/>
	<circle cx="1790.66" cy="1034.09" r="26.35" style="fill:#1A476F"/>
	<circle cx="1790.66" cy="1034.09" r="22.03" style="fill:none;stroke:#1A476F;stroke-width:8.64"/>
	<circle cx="3378.00" cy="1164.52" r="26.35" style="fill:#1A476F"/>
	<circle cx="3378.00" cy="1164.52" r="22.03" style="fill:none;stroke:#1A476F;stroke-width:8.64"/>
	<circle cx="2960.22" cy="468.66" r="26.35" style="fill:#1A476F"/>
	<circle cx="2960.22" cy="468.66" r="22.03" style="fill:none;stroke:#1A476F;stroke-width:8.64"/>
	<circle cx="3210.94" cy="1295.08" r="26.35" style="fill:#1A476F"/>
	<circle cx="3210.94" cy="1295.08" r="22.03" style="fill:none;stroke:#1A476F;stroke-width:8.64"/>
	<circle cx="2709.63" cy="1686.52" r="26.35" style="fill:#1A476F"/>
	<circle cx="2709.63" cy="1686.52" r="22.03" style="fill:none;stroke:#1A476F;stroke-width:8.64"/>
	<circle cx="2041.38" cy="1816.95" r="26.35" style="fill:#1A476F"/>
	<circle cx="2041.38" cy="1816.95" r="22.03" style="fill:none;stroke:#1A476F;stroke-width:8.64"/>
	<circle cx="2291.97" cy="1599.52" r="26.35" style="fill:#1A476F"/>
	<circle cx="2291.97" cy="1599.52" r="22.03" style="fill:none;stroke:#1A476F;stroke-width:8.64"/>
	<circle cx="2709.63" cy="1164.52" r="26.35" style="fill:#1A476F"/>
	<circle cx="2709.63" cy="1164.52" r="22.03" style="fill:none;stroke:#1A476F;stroke-width:8.64"/>
	<circle cx="3378.00" cy="686.09" r="26.35" style="fill:#1A476F"/>
	<circle cx="3378.00" cy="686.09" r="22.03" style="fill:none;stroke:#1A476F;stroke-width:8.64"/>
	<circle cx="1205.94" cy="1251.52" r="26.35" style="fill:#1A476F"/>
	<circle cx="1205.94" cy="1251.52" r="22.03" style="fill:none;stroke:#1A476F;stroke-width:8.64"/>
	<circle cx="2041.38" cy="903.65" r="26.35" style="fill:#1A476F"/>
	<circle cx="2041.38" cy="903.65" r="22.03" style="fill:none;stroke:#1A476F;stroke-width:8.64"/>
	<circle cx="3210.94" cy="903.65" r="26.35" style="fill:#1A476F"/>
	<circle cx="3210.94" cy="903.65" r="22.03" style="fill:none;stroke:#1A476F;stroke-width:8.64"/>
	<circle cx="1289.47" cy="1469.08" r="26.35" style="fill:#1A476F"/>
	<circle cx="1289.47" cy="1469.08" r="22.03" style="fill:none;stroke:#1A476F;stroke-width:8.64"/>
	<circle cx="2291.97" cy="1034.09" r="26.35" style="fill:#1A476F"/>
	<circle cx="2291.97" cy="1034.09" r="22.03" style="fill:none;stroke:#1A476F;stroke-width:8.64"/>
	<circle cx="1623.60" cy="2034.51" r="26.35" style="fill:#1A476F"/>
	<circle cx="1623.60" cy="2034.51" r="22.03" style="fill:none;stroke:#1A476F;stroke-width:8.64"/>
	<circle cx="1038.88" cy="2164.95" r="26.35" style="fill:#1A476F"/>
	<circle cx="1038.88" cy="2164.95" r="22.03" style="fill:none;stroke:#1A476F;stroke-width:8.64"/>
	<circle cx="3378.00" cy="816.65" r="26.35" style="fill:#1A476F"/>
	<circle cx="3378.00" cy="816.65" r="22.03" style="fill:none;stroke:#1A476F;stroke-width:8.64"/>
	<circle cx="2709.63" cy="1599.52" r="26.35" style="fill:#1A476F"/>
	<circle cx="2709.63" cy="1599.52" r="22.03" style="fill:none;stroke:#1A476F;stroke-width:8.64"/>
	<circle cx="1122.41" cy="1729.96" r="26.35" style="fill:#1A476F"/>
	<circle cx="1122.41" cy="1729.96" r="22.03" style="fill:none;stroke:#1A476F;stroke-width:8.64"/>
	<circle cx="1623.60" cy="1382.08" r="26.35" style="fill:#1A476F"/>
	<circle cx="1623.60" cy="1382.08" r="22.03" style="fill:none;stroke:#1A476F;stroke-width:8.64"/>
	<circle cx="537.57" cy="1816.95" r="26.35" style="fill:#1A476F"/>
	<circle cx="537.57" cy="1816.95" r="22.03" style="fill:none;stroke:#1A476F;stroke-width:8.64"/>
	<circle cx="2291.97" cy="338.22" r="26.35" style="fill:#1A476F"/>
	<circle cx="2291.97" cy="338.22" r="22.03" style="fill:none;stroke:#1A476F;stroke-width:8.64"/>
	<circle cx="3545.07" cy="816.65" r="26.35" style="fill:#1A476F"/>
	<circle cx="3545.07" cy="816.65" r="22.03" style="fill:none;stroke:#1A476F;stroke-width:8.64"/>
	<circle cx="1373.01" cy="1816.95" r="26.35" style="fill:#1A476F"/>
	<circle cx="1373.01" cy="1816.95" r="22.03" style="fill:none;stroke:#1A476F;stroke-width:8.64"/>
	<circle cx="2876.69" cy="1382.08" r="26.35" style="fill:#1A476F"/>
	<circle cx="2876.69" cy="1382.08" r="22.03" style="fill:none;stroke:#1A476F;stroke-width:8.64"/>
	<circle cx="3378.00" cy="1034.09" r="26.35" style="fill:#1A476F"/>
	<circle cx="3378.00" cy="1034.09" r="22.03" style="fill:none;stroke:#1A476F;stroke-width:8.64"/>
	<circle cx="2459.04" cy="686.09" r="26.35" style="fill:#1A476F"/>
	<circle cx="2459.04" cy="686.09" r="22.03" style="fill:none;stroke:#1A476F;stroke-width:8.64"/>
	<circle cx="3127.29" cy="816.65" r="26.35" style="fill:#1A476F"/>
	<circle cx="3127.29" cy="816.65" r="22.03" style="fill:none;stroke:#1A476F;stroke-width:8.64"/>
	<circle cx="537.57" cy="1599.52" r="26.35" style="fill:#1A476F"/>
	<circle cx="537.57" cy="1599.52" r="22.03" style="fill:none;stroke:#1A476F;stroke-width:8.64"/>
	<circle cx="537.57" cy="1947.51" r="26.35" style="fill:#1A476F"/>
	<circle cx="537.57" cy="1947.51" r="22.03" style="fill:none;stroke:#1A476F;stroke-width:8.64"/>
	<circle cx="1874.19" cy="1599.52" r="26.35" style="fill:#1A476F"/>
	<circle cx="1874.19" cy="1599.52" r="22.03" style="fill:none;stroke:#1A476F;stroke-width:8.64"/>
	<circle cx="2876.69" cy="1251.52" r="26.35" style="fill:#1A476F"/>
	<circle cx="2876.69" cy="1251.52" r="22.03" style="fill:none;stroke:#1A476F;stroke-width:8.64"/>
	<circle cx="2459.04" cy="1382.08" r="26.35" style="fill:#1A476F"/>
	<circle cx="2459.04" cy="1382.08" r="22.03" style="fill:none;stroke:#1A476F;stroke-width:8.64"/>
	<circle cx="1373.01" cy="1816.95" r="26.35" style="fill:#1A476F"/>
	<circle cx="1373.01" cy="1816.95" r="22.03" style="fill:none;stroke:#1A476F;stroke-width:8.64"/>
	<circle cx="3378.00" cy="816.65" r="26.35" style="fill:#1A476F"/>
	<circle cx="3378.00" cy="816.65" r="22.03" style="fill:none;stroke:#1A476F;stroke-width:8.64"/>
	<circle cx="2876.69" cy="1251.52" r="26.35" style="fill:#1A476F"/>
	<circle cx="2876.69" cy="1251.52" r="22.03" style="fill:none;stroke:#1A476F;stroke-width:8.64"/>
	<circle cx="1289.47" cy="1469.08" r="26.35" style="fill:#1A476F"/>
	<circle cx="1289.47" cy="1469.08" r="22.03" style="fill:none;stroke:#1A476F;stroke-width:8.64"/>
	<circle cx="2876.69" cy="816.65" r="26.35" style="fill:#1A476F"/>
	<circle cx="2876.69" cy="816.65" r="22.03" style="fill:none;stroke:#1A476F;stroke-width:8.64"/>
	<circle cx="2876.69" cy="1599.52" r="26.35" style="fill:#1A476F"/>
	<circle cx="2876.69" cy="1599.52" r="22.03" style="fill:none;stroke:#1A476F;stroke-width:8.64"/>
	<circle cx="2459.04" cy="1164.52" r="26.35" style="fill:#1A476F"/>
	<circle cx="2459.04" cy="1164.52" r="22.03" style="fill:none;stroke:#1A476F;stroke-width:8.64"/>
	<circle cx="3043.76" cy="1338.52" r="26.35" style="fill:#1A476F"/>
	<circle cx="3043.76" cy="1338.52" r="22.03" style="fill:none;stroke:#1A476F;stroke-width:8.64"/>
	<circle cx="704.76" cy="1947.51" r="26.35" style="fill:#1A476F"/>
	<circle cx="704.76" cy="1947.51" r="22.03" style="fill:none;stroke:#1A476F;stroke-width:8.64"/>
	<circle cx="1623.60" cy="1729.96" r="26.35" style="fill:#1A476F"/>
	<circle cx="1623.60" cy="1729.96" r="22.03" style="fill:none;stroke:#1A476F;stroke-width:8.64"/>
	<circle cx="2876.69" cy="903.65" r="26.35" style="fill:#1A476F"/>
	<circle cx="2876.69" cy="903.65" r="22.03" style="fill:none;stroke:#1A476F;stroke-width:8.64"/>
	<circle cx="3127.29" cy="468.66" r="26.35" style="fill:#1A476F"/>
	<circle cx="3127.29" cy="468.66" r="22.03" style="fill:none;stroke:#1A476F;stroke-width:8.64"/>
	<circle cx="1205.94" cy="1947.51" r="26.35" style="fill:#1A476F"/>
	<circle cx="1205.94" cy="1947.51" r="22.03" style="fill:none;stroke:#1A476F;stroke-width:8.64"/>
	<circle cx="1038.88" cy="2034.51" r="26.35" style="fill:#1A476F"/>
	<circle cx="1038.88" cy="2034.51" r="22.03" style="fill:none;stroke:#1A476F;stroke-width:8.64"/>
	<circle cx="1205.94" cy="1816.95" r="26.35" style="fill:#1A476F"/>
	<circle cx="1205.94" cy="1816.95" r="22.03" style="fill:none;stroke:#1A476F;stroke-width:8.64"/>
	<circle cx="2709.63" cy="903.65" r="26.35" style="fill:#1A476F"/>
	<circle cx="2709.63" cy="903.65" r="22.03" style="fill:none;stroke:#1A476F;stroke-width:8.64"/>
	<circle cx="2041.38" cy="1556.08" r="26.35" style="fill:#1A476F"/>
	<circle cx="2041.38" cy="1556.08" r="22.03" style="fill:none;stroke:#1A476F;stroke-width:8.64"/>
	<circle cx="1790.66" cy="1469.08" r="26.35" style="fill:#1A476F"/>
	<circle cx="1790.66" cy="1469.08" r="22.03" style="fill:none;stroke:#1A476F;stroke-width:8.64"/>
	<circle cx="3127.29" cy="1599.52" r="26.35" style="fill:#1A476F"/>
	<circle cx="3127.29" cy="1599.52" r="22.03" style="fill:none;stroke:#1A476F;stroke-width:8.64"/>
	<circle cx="1623.60" cy="1729.96" r="26.35" style="fill:#1A476F"/>
	<circle cx="1623.60" cy="1729.96" r="22.03" style="fill:none;stroke:#1A476F;stroke-width:8.64"/>
	<circle cx="704.76" cy="2164.95" r="26.35" style="fill:#1A476F"/>
	<circle cx="704.76" cy="2164.95" r="22.03" style="fill:none;stroke:#1A476F;stroke-width:8.64"/>
	<circle cx="1456.54" cy="1469.08" r="26.35" style="fill:#1A476F"/>
	<circle cx="1456.54" cy="1469.08" r="22.03" style="fill:none;stroke:#1A476F;stroke-width:8.64"/>
	<circle cx="1373.01" cy="1729.96" r="26.35" style="fill:#1A476F"/>
	<circle cx="1373.01" cy="1729.96" r="22.03" style="fill:none;stroke:#1A476F;stroke-width:8.64"/>
	<circle cx="2459.04" cy="1034.09" r="26.35" style="fill:#1A476F"/>
	<circle cx="2459.04" cy="1034.09" r="22.03" style="fill:none;stroke:#1A476F;stroke-width:8.64"/>
	<circle cx="1205.94" cy="1599.52" r="26.35" style="fill:#1A476F"/>
	<circle cx="1205.94" cy="1599.52" r="22.03" style="fill:none;stroke:#1A476F;stroke-width:8.64"/>
	<circle cx="1540.07" cy="903.65" r="26.35" style="fill:#1A476F"/>
	<circle cx="1540.07" cy="903.65" r="22.03" style="fill:none;stroke:#1A476F;stroke-width:8.64"/>
	<circle cx="704.76" cy="1469.08" r="26.35" style="fill:#1A476F"/>
	<circle cx="704.76" cy="1469.08" r="22.03" style="fill:none;stroke:#1A476F;stroke-width:8.64"/>
	<circle cx="1623.60" cy="1729.96" r="26.35" style="fill:#1A476F"/>
	<circle cx="1623.60" cy="1729.96" r="22.03" style="fill:none;stroke:#1A476F;stroke-width:8.64"/>
	<circle cx="2459.04" cy="1034.09" r="26.35" style="fill:#1A476F"/>
	<circle cx="2459.04" cy="1034.09" r="22.03" style="fill:none;stroke:#1A476F;stroke-width:8.64"/>
	<circle cx="3545.07" cy="468.66" r="26.35" style="fill:#1A476F"/>
	<circle cx="3545.07" cy="468.66" r="22.03" style="fill:none;stroke:#1A476F;stroke-width:8.64"/>
	<circle cx="2876.69" cy="686.09" r="26.35" style="fill:#1A476F"/>
	<circle cx="2876.69" cy="686.09" r="22.03" style="fill:none;stroke:#1A476F;stroke-width:8.64"/>
	<circle cx="1707.13" cy="1251.52" r="26.35" style="fill:#1A476F"/>
	<circle cx="1707.13" cy="1251.52" r="22.03" style="fill:none;stroke:#1A476F;stroke-width:8.64"/>
	<circle cx="1289.47" cy="1599.52" r="26.35" style="fill:#1A476F"/>
	<circle cx="1289.47" cy="1599.52" r="22.03" style="fill:none;stroke:#1A476F;stroke-width:8.64"/>
	<circle cx="3043.76" cy="1251.52" r="26.35" style="fill:#1A476F"/>
	<circle cx="3043.76" cy="1251.52" r="22.03" style="fill:none;stroke:#1A476F;stroke-width:8.64"/>
	<circle cx="2876.69" cy="686.09" r="26.35" style="fill:#1A476F"/>
	<circle cx="2876.69" cy="686.09" r="22.03" style="fill:none;stroke:#1A476F;stroke-width:8.64"/>
	<circle cx="955.35" cy="2295.39" r="26.35" style="fill:#1A476F"/>
	<circle cx="955.35" cy="2295.39" r="22.03" style="fill:none;stroke:#1A476F;stroke-width:8.64"/>
	<circle cx="1373.01" cy="1599.52" r="26.35" style="fill:#1A476F"/>
	<circle cx="1373.01" cy="1599.52" r="22.03" style="fill:none;stroke:#1A476F;stroke-width:8.64"/>
	<circle cx="2876.69" cy="903.65" r="26.35" style="fill:#1A476F"/>
	<circle cx="2876.69" cy="903.65" r="22.03" style="fill:none;stroke:#1A476F;stroke-width:8.64"/>
	<circle cx="2041.38" cy="2077.95" r="26.35" style="fill:#1A476F"/>
	<circle cx="2041.38" cy="2077.95" r="22.03" style="fill:none;stroke:#1A476F;stroke-width:8.64"/>
	<circle cx="2876.69" cy="686.09" r="26.35" style="fill:#1A476F"/>
	<circle cx="2876.69" cy="686.09" r="22.03" style="fill:none;stroke:#1A476F;stroke-width:8.64"/>
	<circle cx="3378.00" cy="903.65" r="26.35" style="fill:#1A476F"/>
	<circle cx="3378.00" cy="903.65" r="22.03" style="fill:none;stroke:#1A476F;stroke-width:8.64"/>
	<circle cx="1373.01" cy="1251.52" r="26.35" style="fill:#1A476F"/>
	<circle cx="1373.01" cy="1251.52" r="22.03" style="fill:none;stroke:#1A476F;stroke-width:8.64"/>
	<circle cx="3127.29" cy="1251.52" r="26.35" style="fill:#1A476F"/>
	<circle cx="3127.29" cy="1251.52" r="22.03" style="fill:none;stroke:#1A476F;stroke-width:8.64"/>
	<circle cx="1373.01" cy="1382.08" r="26.35" style="fill:#1A476F"/>
	<circle cx="1373.01" cy="1382.08" r="22.03" style="fill:none;stroke:#1A476F;stroke-width:8.64"/>
	<circle cx="2041.38" cy="2164.95" r="26.35" style="fill:#1A476F"/>
	<circle cx="2041.38" cy="2164.95" r="22.03" style="fill:none;stroke:#1A476F;stroke-width:8.64"/>
	<circle cx="537.57" cy="1469.08" r="26.35" style="fill:#1A476F"/>
	<circle cx="537.57" cy="1469.08" r="22.03" style="fill:none;stroke:#1A476F;stroke-width:8.64"/>
	<circle cx="2041.38" cy="1251.52" r="26.35" style="fill:#1A476F"/>
	<circle cx="2041.38" cy="1251.52" r="22.03" style="fill:none;stroke:#1A476F;stroke-width:8.64"/>
	<circle cx="3127.29" cy="1382.08" r="26.35" style="fill:#1A476F"/>
	<circle cx="3127.29" cy="1382.08" r="22.03" style="fill:none;stroke:#1A476F;stroke-width:8.64"/>
	<circle cx="2041.38" cy="903.65" r="26.35" style="fill:#1A476F"/>
	<circle cx="2041.38" cy="903.65" r="22.03" style="fill:none;stroke:#1A476F;stroke-width:8.64"/>
	<circle cx="3127.29" cy="686.09" r="26.35" style="fill:#1A476F"/>
	<circle cx="3127.29" cy="686.09" r="22.03" style="fill:none;stroke:#1A476F;stroke-width:8.64"/>
	<circle cx="1623.60" cy="1947.51" r="26.35" style="fill:#1A476F"/>
	<circle cx="1623.60" cy="1947.51" r="22.03" style="fill:none;stroke:#1A476F;stroke-width:8.64"/>
	<circle cx="1623.60" cy="1729.96" r="26.35" style="fill:#1A476F"/>
	<circle cx="1623.60" cy="1729.96" r="22.03" style="fill:none;stroke:#1A476F;stroke-width:8.64"/>
	<circle cx="3127.29" cy="1469.08" r="26.35" style="fill:#1A476F"/>
	<circle cx="3127.29" cy="1469.08" r="22.03" style="fill:none;stroke:#1A476F;stroke-width:8.64"/>
	<circle cx="3378.00" cy="555.65" r="26.35" style="fill:#1A476F"/>
	<circle cx="3378.00" cy="555.65" r="22.03" style="fill:none;stroke:#1A476F;stroke-width:8.64"/>
	<circle cx="3378.00" cy="903.65" r="26.35" style="fill:#1A476F"/>
	<circle cx="3378.00" cy="903.65" r="22.03" style="fill:none;stroke:#1A476F;stroke-width:8.64"/>
	<circle cx="1623.60" cy="2164.95" r="26.35" style="fill:#1A476F"/>
	<circle cx="1623.60" cy="2164.95" r="22.03" style="fill:none;stroke:#1A476F;stroke-width:8.64"/>
	<circle cx="3210.94" cy="903.65" r="26.35" style="fill:#1A476F"/>
	<circle cx="3210.94" cy="903.65" r="22.03" style="fill:none;stroke:#1A476F;stroke-width:8.64"/>
	<circle cx="2960.22" cy="686.09" r="26.35" style="fill:#1A476F"/>
	<circle cx="2960.22" cy="686.09" r="22.03" style="fill:none;stroke:#1A476F;stroke-width:8.64"/>
	<circle cx="2876.69" cy="1599.52" r="26.35" style="fill:#1A476F"/>
	<circle cx="2876.69" cy="1599.52" r="22.03" style="fill:none;stroke:#1A476F;stroke-width:8.64"/>
	<circle cx="1790.66" cy="1599.52" r="26.35" style="fill:#1A476F"/>
	<circle cx="1790.66" cy="1599.52" r="22.03" style="fill:none;stroke:#1A476F;stroke-width:8.64"/>
	<circle cx="2291.97" cy="903.65" r="26.35" style="fill:#1A476F"/>
	<circle cx="2291.97" cy="903.65" r="22.03" style="fill:none;stroke:#1A476F;stroke-width:8.64"/>
	<circle cx="2876.69" cy="1382.08" r="26.35" style="fill:#1A476F"/>
	<circle cx="2876.69" cy="1382.08" r="22.03" style="fill:none;stroke:#1A476F;stroke-width:8.64"/>
	<circle cx="2459.04" cy="1251.52" r="26.35" style="fill:#1A476F"/>
	<circle cx="2459.04" cy="1251.52" r="22.03" style="fill:none;stroke:#1A476F;stroke-width:8.64"/>
	<circle cx="3127.29" cy="1034.09" r="26.35" style="fill:#1A476F"/>
	<circle cx="3127.29" cy="1034.09" r="22.03" style="fill:none;stroke:#1A476F;stroke-width:8.64"/>
	<circle cx="871.82" cy="2121.51" r="26.35" style="fill:#1A476F"/>
	<circle cx="871.82" cy="2121.51" r="22.03" style="fill:none;stroke:#1A476F;stroke-width:8.64"/>
	<circle cx="2459.04" cy="1599.52" r="26.35" style="fill:#1A476F"/>
	<circle cx="2459.04" cy="1599.52" r="22.03" style="fill:none;stroke:#1A476F;stroke-width:8.64"/>
	<circle cx="3378.00" cy="555.65" r="26.35" style="fill:#1A476F"/>
	<circle cx="3378.00" cy="555.65" r="22.03" style="fill:none;stroke:#1A476F;stroke-width:8.64"/>
	<circle cx="2291.97" cy="1164.52" r="26.35" style="fill:#1A476F"/>
	<circle cx="2291.97" cy="1164.52" r="22.03" style="fill:none;stroke:#1A476F;stroke-width:8.64"/>
	<circle cx="2124.91" cy="1729.96" r="26.35" style="fill:#1A476F"/>
	<circle cx="2124.91" cy="1729.96" r="22.03" style="fill:none;stroke:#1A476F;stroke-width:8.64"/>
	<circle cx="2876.69" cy="816.65" r="26.35" style="fill:#1A476F"/>
	<circle cx="2876.69" cy="816.65" r="22.03" style="fill:none;stroke:#1A476F;stroke-width:8.64"/>
	<circle cx="3378.00" cy="686.09" r="26.35" style="fill:#1A476F"/>
	<circle cx="3378.00" cy="686.09" r="22.03" style="fill:none;stroke:#1A476F;stroke-width:8.64"/>
	<circle cx="3043.76" cy="468.66" r="26.35" style="fill:#1A476F"/>
	<circle cx="3043.76" cy="468.66" r="22.03" style="fill:none;stroke:#1A476F;stroke-width:8.64"/>
	<circle cx="1623.60" cy="2077.95" r="26.35" style="fill:#1A476F"/>
	<circle cx="1623.60" cy="2077.95" r="22.03" style="fill:none;stroke:#1A476F;stroke-width:8.64"/>
	<circle cx="2459.04" cy="1773.52" r="26.35" style="fill:#1A476F"/>
	<circle cx="2459.04" cy="1773.52" r="22.03" style="fill:none;stroke:#1A476F;stroke-width:8.64"/>
	<circle cx="3545.07" cy="468.66" r="26.35" style="fill:#1A476F"/>
	<circle cx="3545.07" cy="468.66" r="22.03" style="fill:none;stroke:#1A476F;stroke-width:8.64"/>
	<circle cx="2709.63" cy="1382.08" r="26.35" style="fill:#1A476F"/>
	<circle cx="2709.63" cy="1382.08" r="22.03" style="fill:none;stroke:#1A476F;stroke-width:8.64"/>
	<circle cx="1874.19" cy="1860.52" r="26.35" style="fill:#1A476F"/>
	<circle cx="1874.19" cy="1860.52" r="22.03" style="fill:none;stroke:#1A476F;stroke-width:8.64"/>
	<circle cx="2459.04" cy="1034.09" r="26.35" style="fill:#1A476F"/>
	<circle cx="2459.04" cy="1034.09" r="22.03" style="fill:none;stroke:#1A476F;stroke-width:8.64"/>
	<circle cx="2291.97" cy="1469.08" r="26.35" style="fill:#1A476F"/>
	<circle cx="2291.97" cy="1469.08" r="22.03" style="fill:none;stroke:#1A476F;stroke-width:8.64"/>
	<circle cx="2291.97" cy="1469.08" r="26.35" style="fill:#1A476F"/>
	<circle cx="2291.97" cy="1469.08" r="22.03" style="fill:none;stroke:#1A476F;stroke-width:8.64"/>
	<circle cx="1790.66" cy="1599.52" r="26.35" style="fill:#1A476F"/>
	<circle cx="1790.66" cy="1599.52" r="22.03" style="fill:none;stroke:#1A476F;stroke-width:8.64"/>
	<circle cx="3127.29" cy="1599.52" r="26.35" style="fill:#1A476F"/>
	<circle cx="3127.29" cy="1599.52" r="22.03" style="fill:none;stroke:#1A476F;stroke-width:8.64"/>
	<circle cx="2709.63" cy="1251.52" r="26.35" style="fill:#1A476F"/>
	<circle cx="2709.63" cy="1251.52" r="22.03" style="fill:none;stroke:#1A476F;stroke-width:8.64"/>
	<circle cx="1373.01" cy="1469.08" r="26.35" style="fill:#1A476F"/>
	<circle cx="1373.01" cy="1469.08" r="22.03" style="fill:none;stroke:#1A476F;stroke-width:8.64"/>
	<circle cx="2375.51" cy="1947.51" r="26.35" style="fill:#1A476F"/>
	<circle cx="2375.51" cy="1947.51" r="22.03" style="fill:none;stroke:#1A476F;stroke-width:8.64"/>
	<circle cx="2041.38" cy="1469.08" r="26.35" style="fill:#1A476F"/>
	<circle cx="2041.38" cy="1469.08" r="22.03" style="fill:none;stroke:#1A476F;stroke-width:8.64"/>
	<circle cx="871.82" cy="2164.95" r="26.35" style="fill:#1A476F"/>
	<circle cx="871.82" cy="2164.95" r="22.03" style="fill:none;stroke:#1A476F;stroke-width:8.64"/>
	<circle cx="2876.69" cy="1164.52" r="26.35" style="fill:#1A476F"/>
	<circle cx="2876.69" cy="1164.52" r="22.03" style="fill:none;stroke:#1A476F;stroke-width:8.64"/>
	<circle cx="3378.00" cy="1164.52" r="26.35" style="fill:#1A476F"/>
	<circle cx="3378.00" cy="1164.52" r="22.03" style="fill:none;stroke:#1A476F;stroke-width:8.64"/>
	<circle cx="3127.29" cy="686.09" r="26.35" style="fill:#1A476F"/>
	<circle cx="3127.29" cy="686.09" r="22.03" style="fill:none;stroke:#1A476F;stroke-width:8.64"/>
	<circle cx="2459.04" cy="1816.95" r="26.35" style="fill:#1A476F"/>
	<circle cx="2459.04" cy="1816.95" r="22.03" style="fill:none;stroke:#1A476F;stroke-width:8.64"/>
	<circle cx="2876.69" cy="990.65" r="26.35" style="fill:#1A476F"/>
	<circle cx="2876.69" cy="990.65" r="22.03" style="fill:none;stroke:#1A476F;stroke-width:8.64"/>
	<circle cx="3210.94" cy="338.22" r="26.35" style="fill:#1A476F"/>
	<circle cx="3210.94" cy="338.22" r="22.03" style="fill:none;stroke:#1A476F;stroke-width:8.64"/>
	<circle cx="2876.69" cy="1599.52" r="26.35" style="fill:#1A476F"/>
	<circle cx="2876.69" cy="1599.52" r="22.03" style="fill:none;stroke:#1A476F;stroke-width:8.64"/>
	<circle cx="2291.97" cy="1642.96" r="26.35" style="fill:#1A476F"/>
	<circle cx="2291.97" cy="1642.96" r="22.03" style="fill:none;stroke:#1A476F;stroke-width:8.64"/>
	<circle cx="1373.01" cy="1947.51" r="26.35" style="fill:#1A476F"/>
	<circle cx="1373.01" cy="1947.51" r="22.03" style="fill:none;stroke:#1A476F;stroke-width:8.64"/>
	<circle cx="2041.38" cy="1382.08" r="26.35" style="fill:#1A476F"/>
	<circle cx="2041.38" cy="1382.08" r="22.03" style="fill:none;stroke:#1A476F;stroke-width:8.64"/>
	<circle cx="1790.66" cy="2425.95" r="26.35" style="fill:#1A476F"/>
	<circle cx="1790.66" cy="2425.95" r="22.03" style="fill:none;stroke:#1A476F;stroke-width:8.64"/>
	<circle cx="2459.04" cy="1816.95" r="26.35" style="fill:#1A476F"/>
	<circle cx="2459.04" cy="1816.95" r="22.03" style="fill:none;stroke:#1A476F;stroke-width:8.64"/>
	<circle cx="1456.54" cy="1599.52" r="26.35" style="fill:#1A476F"/>
	<circle cx="1456.54" cy="1599.52" r="22.03" style="fill:none;stroke:#1A476F;stroke-width:8.64"/>
	<circle cx="2709.63" cy="1599.52" r="26.35" style="fill:#1A476F"/>
	<circle cx="2709.63" cy="1599.52" r="22.03" style="fill:none;stroke:#1A476F;stroke-width:8.64"/>
	<circle cx="2876.69" cy="1382.08" r="26.35" style="fill:#1A476F"/>
	<circle cx="2876.69" cy="1382.08" r="22.03" style="fill:none;stroke:#1A476F;stroke-width:8.64"/>
	<circle cx="2291.97" cy="1599.52" r="26.35" style="fill:#1A476F"/>
	<circle cx="2291.97" cy="1599.52" r="22.03" style="fill:none;stroke:#1A476F;stroke-width:8.64"/>
	<circle cx="3127.29" cy="1469.08" r="26.35" style="fill:#1A476F"/>
	<circle cx="3127.29" cy="1469.08" r="22.03" style="fill:none;stroke:#1A476F;stroke-width:8.64"/>
	<circle cx="2291.97" cy="1729.96" r="26.35" style="fill:#1A476F"/>
	<circle cx="2291.97" cy="1729.96" r="22.03" style="fill:none;stroke:#1A476F;stroke-width:8.64"/>
	<circle cx="1373.01" cy="1599.52" r="26.35" style="fill:#1A476F"/>
	<circle cx="1373.01" cy="1599.52" r="22.03" style="fill:none;stroke:#1A476F;stroke-width:8.64"/>
	<circle cx="2542.57" cy="1686.52" r="26.35" style="fill:#1A476F"/>
	<circle cx="2542.57" cy="1686.52" r="22.03" style="fill:none;stroke:#1A476F;stroke-width:8.64"/>
	<circle cx="1038.88" cy="1599.52" r="26.35" style="fill:#1A476F"/>
	<circle cx="1038.88" cy="1599.52" r="22.03" style="fill:none;stroke:#1A476F;stroke-width:8.64"/>
	<circle cx="2459.04" cy="816.65" r="26.35" style="fill:#1A476F"/>
	<circle cx="2459.04" cy="816.65" r="22.03" style="fill:none;stroke:#1A476F;stroke-width:8.64"/>
	<circle cx="2709.63" cy="1773.52" r="26.35" style="fill:#1A476F"/>
	<circle cx="2709.63" cy="1773.52" r="22.03" style="fill:none;stroke:#1A476F;stroke-width:8.64"/>
	<circle cx="2459.04" cy="1599.52" r="26.35" style="fill:#1A476F"/>
	<circle cx="2459.04" cy="1599.52" r="22.03" style="fill:none;stroke:#1A476F;stroke-width:8.64"/>
	<circle cx="3127.29" cy="1164.52" r="26.35" style="fill:#1A476F"/>
	<circle cx="3127.29" cy="1164.52" r="22.03" style="fill:none;stroke:#1A476F;stroke-width:8.64"/>
	<circle cx="2876.69" cy="686.09" r="26.35" style="fill:#1A476F"/>
	<circle cx="2876.69" cy="686.09" r="22.03" style="fill:none;stroke:#1A476F;stroke-width:8.64"/>
	<circle cx="2542.57" cy="1382.08" r="26.35" style="fill:#1A476F"/>
	<circle cx="2542.57" cy="1382.08" r="22.03" style="fill:none;stroke:#1A476F;stroke-width:8.64"/>
	<circle cx="2709.63" cy="1816.95" r="26.35" style="fill:#1A476F"/>
	<circle cx="2709.63" cy="1816.95" r="22.03" style="fill:none;stroke:#1A476F;stroke-width:8.64"/>
	<circle cx="1205.94" cy="1816.95" r="26.35" style="fill:#1A476F"/>
	<circle cx="1205.94" cy="1816.95" r="22.03" style="fill:none;stroke:#1A476F;stroke-width:8.64"/>
	<circle cx="3545.07" cy="773.09" r="26.35" style="fill:#1A476F"/>
	<circle cx="3545.07" cy="773.09" r="22.03" style="fill:none;stroke:#1A476F;stroke-width:8.64"/>
	<circle cx="3127.29" cy="1599.52" r="26.35" style="fill:#1A476F"/>
	<circle cx="3127.29" cy="1599.52" r="22.03" style="fill:none;stroke:#1A476F;stroke-width:8.64"/>
	<circle cx="2124.91" cy="1164.52" r="26.35" style="fill:#1A476F"/>
	<circle cx="2124.91" cy="1164.52" r="22.03" style="fill:none;stroke:#1A476F;stroke-width:8.64"/>
	<circle cx="3043.76" cy="1599.52" r="26.35" style="fill:#1A476F"/>
	<circle cx="3043.76" cy="1599.52" r="22.03" style="fill:none;stroke:#1A476F;stroke-width:8.64"/>
	<circle cx="3127.29" cy="1164.52" r="26.35" style="fill:#1A476F"/>
	<circle cx="3127.29" cy="1164.52" r="22.03" style="fill:none;stroke:#1A476F;stroke-width:8.64"/>
	<circle cx="2876.69" cy="1382.08" r="26.35" style="fill:#1A476F"/>
	<circle cx="2876.69" cy="1382.08" r="22.03" style="fill:none;stroke:#1A476F;stroke-width:8.64"/>
	<circle cx="1623.60" cy="1729.96" r="26.35" style="fill:#1A476F"/>
	<circle cx="1623.60" cy="1729.96" r="22.03" style="fill:none;stroke:#1A476F;stroke-width:8.64"/>
	<circle cx="2876.69" cy="1469.08" r="26.35" style="fill:#1A476F"/>
	<circle cx="2876.69" cy="1469.08" r="22.03" style="fill:none;stroke:#1A476F;stroke-width:8.64"/>
	<circle cx="2459.04" cy="1947.51" r="26.35" style="fill:#1A476F"/>
	<circle cx="2459.04" cy="1947.51" r="22.03" style="fill:none;stroke:#1A476F;stroke-width:8.64"/>
	<circle cx="3127.29" cy="1164.52" r="26.35" style="fill:#1A476F"/>
	<circle cx="3127.29" cy="1164.52" r="22.03" style="fill:none;stroke:#1A476F;stroke-width:8.64"/>
	<circle cx="2960.22" cy="1164.52" r="26.35" style="fill:#1A476F"/>
	<circle cx="2960.22" cy="1164.52" r="22.03" style="fill:none;stroke:#1A476F;stroke-width:8.64"/>
	<circle cx="2709.63" cy="1816.95" r="26.35" style="fill:#1A476F"/>
	<circle cx="2709.63" cy="1816.95" r="22.03" style="fill:none;stroke:#1A476F;stroke-width:8.64"/>
	<circle cx="1790.66" cy="1599.52" r="26.35" style="fill:#1A476F"/>
	<circle cx="1790.66" cy="1599.52" r="22.03" style="fill:none;stroke:#1A476F;stroke-width:8.64"/>
	<circle cx="955.35" cy="1816.95" r="26.35" style="fill:#1A476F"/>
	<circle cx="955.35" cy="1816.95" r="22.03" style="fill:none;stroke:#1A476F;stroke-width:8.64"/>
	<circle cx="2876.69" cy="1034.09" r="26.35" style="fill:#1A476F"/>
	<circle cx="2876.69" cy="1034.09" r="22.03" style="fill:none;stroke:#1A476F;stroke-width:8.64"/>
	<circle cx="2041.38" cy="1729.96" r="26.35" style="fill:#1A476F"/>
	<circle cx="2041.38" cy="1729.96" r="22.03" style="fill:none;stroke:#1A476F;stroke-width:8.64"/>
	<circle cx="2960.22" cy="903.65" r="26.35" style="fill:#1A476F"/>
	<circle cx="2960.22" cy="903.65" r="22.03" style="fill:none;stroke:#1A476F;stroke-width:8.64"/>
	<circle cx="3545.07" cy="816.65" r="26.35" style="fill:#1A476F"/>
	<circle cx="3545.07" cy="816.65" r="22.03" style="fill:none;stroke:#1A476F;stroke-width:8.64"/>
	<circle cx="2459.04" cy="1947.51" r="26.35" style="fill:#1A476F"/>
	<circle cx="2459.04" cy="1947.51" r="22.03" style="fill:none;stroke:#1A476F;stroke-width:8.64"/>
	<circle cx="2291.97" cy="1469.08" r="26.35" style="fill:#1A476F"/>
	<circle cx="2291.97" cy="1469.08" r="22.03" style="fill:none;stroke:#1A476F;stroke-width:8.64"/>
	<circle cx="3378.00" cy="1382.08" r="26.35" style="fill:#1A476F"/>
	<circle cx="3378.00" cy="1382.08" r="22.03" style="fill:none;stroke:#1A476F;stroke-width:8.64"/>
	<circle cx="3127.29" cy="1034.09" r="26.35" style="fill:#1A476F"/>
	<circle cx="3127.29" cy="1034.09" r="22.03" style="fill:none;stroke:#1A476F;stroke-width:8.64"/>
	<circle cx="2041.38" cy="1729.96" r="26.35" style="fill:#1A476F"/>
	<circle cx="2041.38" cy="1729.96" r="22.03" style="fill:none;stroke:#1A476F;stroke-width:8.64"/>
	<circle cx="3545.07" cy="1382.08" r="26.35" style="fill:#1A476F"/>
	<circle cx="3545.07" cy="1382.08" r="22.03" style="fill:none;stroke:#1A476F;stroke-width:8.64"/>
	<circle cx="3378.00" cy="1251.52" r="26.35" style="fill:#1A476F"/>
	<circle cx="3378.00" cy="1251.52" r="22.03" style="fill:none;stroke:#1A476F;stroke-width:8.64"/>
	<circle cx="3545.07" cy="1469.08" r="26.35" style="fill:#1A476F"/>
	<circle cx="3545.07" cy="1469.08" r="22.03" style="fill:none;stroke:#1A476F;stroke-width:8.64"/>
	<circle cx="3378.00" cy="816.65" r="26.35" style="fill:#1A476F"/>
	<circle cx="3378.00" cy="816.65" r="22.03" style="fill:none;stroke:#1A476F;stroke-width:8.64"/>
	<circle cx="2459.04" cy="1382.08" r="26.35" style="fill:#1A476F"/>
	<circle cx="2459.04" cy="1382.08" r="22.03" style="fill:none;stroke:#1A476F;stroke-width:8.64"/>
	<circle cx="1623.60" cy="1599.52" r="26.35" style="fill:#1A476F"/>
	<circle cx="1623.60" cy="1599.52" r="22.03" style="fill:none;stroke:#1A476F;stroke-width:8.64"/>
	<circle cx="3127.29" cy="903.65" r="26.35" style="fill:#1A476F"/>
	<circle cx="3127.29" cy="903.65" r="22.03" style="fill:none;stroke:#1A476F;stroke-width:8.64"/>
	<circle cx="1790.66" cy="1469.08" r="26.35" style="fill:#1A476F"/>
	<circle cx="1790.66" cy="1469.08" r="22.03" style="fill:none;stroke:#1A476F;stroke-width:8.64"/>
	<circle cx="2459.04" cy="1816.95" r="26.35" style="fill:#1A476F"/>
	<circle cx="2459.04" cy="1816.95" r="22.03" style="fill:none;stroke:#1A476F;stroke-width:8.64"/>
	<circle cx="2709.63" cy="2077.95" r="26.35" style="fill:#1A476F"/>
	<circle cx="2709.63" cy="2077.95" r="22.03" style="fill:none;stroke:#1A476F;stroke-width:8.64"/>
	<circle cx="2291.97" cy="1469.08" r="26.35" style="fill:#1A476F"/>
	<circle cx="2291.97" cy="1469.08" r="22.03" style="fill:none;stroke:#1A476F;stroke-width:8.64"/>
	<circle cx="2876.69" cy="1860.52" r="26.35" style="fill:#1A476F"/>
	<circle cx="2876.69" cy="1860.52" r="22.03" style="fill:none;stroke:#1A476F;stroke-width:8.64"/>
	<circle cx="3378.00" cy="1599.52" r="26.35" style="fill:#1A476F"/>
	<circle cx="3378.00" cy="1599.52" r="22.03" style="fill:none;stroke:#1A476F;stroke-width:8.64"/>
	<circle cx="2876.69" cy="1251.52" r="26.35" style="fill:#1A476F"/>
	<circle cx="2876.69" cy="1251.52" r="22.03" style="fill:none;stroke:#1A476F;stroke-width:8.64"/>
	<circle cx="1790.66" cy="1816.95" r="26.35" style="fill:#1A476F"/>
	<circle cx="1790.66" cy="1816.95" r="22.03" style="fill:none;stroke:#1A476F;stroke-width:8.64"/>
	<circle cx="1373.01" cy="1164.52" r="26.35" style="fill:#1A476F"/>
	<circle cx="1373.01" cy="1164.52" r="22.03" style="fill:none;stroke:#1A476F;stroke-width:8.64"/>
	<circle cx="3127.29" cy="1251.52" r="26.35" style="fill:#1A476F"/>
	<circle cx="3127.29" cy="1251.52" r="22.03" style="fill:none;stroke:#1A476F;stroke-width:8.64"/>
	<circle cx="3378.00" cy="903.65" r="26.35" style="fill:#1A476F"/>
	<circle cx="3378.00" cy="903.65" r="22.03" style="fill:none;stroke:#1A476F;stroke-width:8.64"/>
	<line x1="390.80" y1="2489.19" x2="390.80" y2="100.86" style="stroke:#000000;stroke-width:5.76"/>
	<line x1="390.80" y1="2338.82" x2="350.83" y2="2338.82" style="stroke:#000000;stroke-width:5.76"/>
	<text x="300.72" y="2338.82" style="font-family:'Helvetica';font-size:99.99px;fill:#000000" transform="rotate(-90 300.72,2338.82)" text-anchor="middle">30</text>
	<line x1="390.80" y1="1903.95" x2="350.83" y2="1903.95" style="stroke:#000000;stroke-width:5.76"/>
	<text x="300.72" y="1903.95" style="font-family:'Helvetica';font-size:99.99px;fill:#000000" transform="rotate(-90 300.72,1903.95)" text-anchor="middle">40</text>
	<line x1="390.80" y1="1468.96" x2="350.83" y2="1468.96" style="stroke:#000000;stroke-width:5.76"/>
	<text x="300.72" y="1468.96" style="font-family:'Helvetica';font-size:99.99px;fill:#000000" transform="rotate(-90 300.72,1468.96)" text-anchor="middle">50</text>
	<line x1="390.80" y1="1034.09" x2="350.83" y2="1034.09" style="stroke:#000000;stroke-width:5.76"/>
	<text x="300.72" y="1034.09" style="font-family:'Helvetica';font-size:99.99px;fill:#000000" transform="rotate(-90 300.72,1034.09)" text-anchor="middle">60</text>
	<line x1="390.80" y1="599.09" x2="350.83" y2="599.09" style="stroke:#000000;stroke-width:5.76"/>
	<text x="300.72" y="599.09" style="font-family:'Helvetica';font-size:99.99px;fill:#000000" transform="rotate(-90 300.72,599.09)" text-anchor="middle">70</text>
	<line x1="390.80" y1="164.22" x2="350.83" y2="164.22" style="stroke:#000000;stroke-width:5.76"/>
	<text x="300.72" y="164.22" style="font-family:'Helvetica';font-size:99.99px;fill:#000000" transform="rotate(-90 300.72,164.22)" text-anchor="middle">80</text>
	<text x="190.71" y="1294.96" style="font-family:'Helvetica';font-size:99.99px;fill:#000000" transform="rotate(-90 190.71,1294.96)" text-anchor="middle">reading score</text>
	<line x1="390.80" y1="2489.19" x2="3859.02" y2="2489.19" style="stroke:#000000;stroke-width:5.76"/>
	<line x1="454.16" y1="2489.19" x2="454.16" y2="2529.16" style="stroke:#000000;stroke-width:5.76"/>
	<text x="454.16" y="2619.14" style="font-family:'Helvetica';font-size:99.99px;fill:#000000" text-anchor="middle">30</text>
	<line x1="1289.47" y1="2489.19" x2="1289.47" y2="2529.16" style="stroke:#000000;stroke-width:5.76"/>
	<text x="1289.47" y="2619.14" style="font-family:'Helvetica';font-size:99.99px;fill:#000000" text-anchor="middle">40</text>
	<line x1="2124.91" y1="2489.19" x2="2124.91" y2="2529.16" style="stroke:#000000;stroke-width:5.76"/>
	<text x="2124.91" y="2619.14" style="font-family:'Helvetica';font-size:99.99px;fill:#000000" text-anchor="middle">50</text>
	<line x1="2960.35" y1="2489.19" x2="2960.35" y2="2529.16" style="stroke:#000000;stroke-width:5.76"/>
	<text x="2960.35" y="2619.14" style="font-family:'Helvetica';font-size:99.99px;fill:#000000" text-anchor="middle">60</text>
	<line x1="3795.66" y1="2489.19" x2="3795.66" y2="2529.16" style="stroke:#000000;stroke-width:5.76"/>
	<text x="3795.66" y="2619.14" style="font-family:'Helvetica';font-size:99.99px;fill:#000000" text-anchor="middle">70</text>
	<text x="2124.91" y="2729.16" style="font-family:'Helvetica';font-size:99.99px;fill:#000000" text-anchor="middle">writing score</text>
</svg>
